# AST/ASF file generated using VICON BodyLanguage
# -----------------------------------------------
:version 1.10
:name VICON
:units
  mass 1.0
  length 0.45
  angle deg
:documentation
   .ast/.asf automatically generated from VICON data using
   VICON BodyBuilder and BodyLanguage model FoxedUp or BRILLIANT.MOD
:root
   order TX TY TZ RX RY RZ
   axis XYZ
   position 0 0 0  
   orientation 0 0 0 
:bonedata
  begin
     id 1 
     name lhipjoint
     direction 0.577973 -0.728611 0.367523 
     length 2.48544 
     axis 0 0 0  XYZ
  end
  begin
     id 2 
     name lfemur
     direction 0.34202 -0.939693 0  
     length 7.1921  
     axis 0 0 20  XYZ
    dof rx ry rz
    limits (-160.0 20.0)
           (-70.0 70.0)
           (-60.0 70.0)
  end
  begin
     id 3 
     name ltibia
     direction 0.34202 -0.939693 0   
     length 7.71059   
     axis 0 0 20   XYZ
    dof rx
    limits (-10.0 170.0)
  end
  begin
     id 4 
     name lfoot
     direction 0.089538 -0.246004 0.965124   
     length 2.19909   
     axis -90 7.62852e-016 20   XYZ
    dof rx rz
    limits (-45.0 90.0)
           (-70.0 20.0)
  end
  begin
     id 5 
     name ltoes
     direction 1.53544e-011 -4.21829e-011 1   
     length 1.10116   
     axis -90 7.62852e-016 20   XYZ
    dof rx
    limits (-90.0 20.0)
  end
  begin
     id 6 
     name rhipjoint
     direction -0.554414 -0.743062 0.374812   
     length 2.4371  
     axis 0 0 0  XYZ 
  end
  begin
     id 7 
     name rfemur
     direction -0.34202 -0.939693 0   
     length 7.47254   
     axis 0 0 -20   XYZ
    dof rx ry rz
    limits (-160.0 20.0)
           (-70.0 70.0)
           (-70.0 60.0)
  end
  begin
     id 8 
     name rtibia
     direction -0.34202 -0.939693 0   
     length 7.65855   
     axis 0 0 -20   XYZ
    dof rx
    limits (-10.0 170.0)
 end
 begin
     id 9 
     name rfoot
     direction -0.133779 -0.367555 0.92033   
     length 2.43006  
     axis -90 -7.62852e-016 -20   XYZ
    dof rx rz
    limits (-45.0 90.0)
           (-20.0 70.0)
  end
  begin
     id 10 
     name rtoes
     direction -1.53563e-011 -4.21889e-011 1   
     length 1.19625   
     axis -90 -7.62852e-016 -20   XYZ
    dof rx
    limits (-90.0 20.0)
  end
  begin
     id 11 
     name lowerback
     direction 0.0249066 0.998043 -0.0573585   
     length 2.08485   
     axis 0 0 0   XYZ
    dof rx ry rz
    limits (-20.0 45.0)
           (-30.0 30.0)
           (-30.0 30.0)
  end
  begin
     id 12 
     name upperback
     direction 0.0237884 0.999673 0.00943178   
     length 2.08515   
     axis 0 0 0   XYZ
    dof rx ry rz
    limits (-20.0 45.0)
           (-30.0 30.0)
           (-30.0 30.0)
  end
  begin
     id 13 
     name thorax
     direction 0.0106671 0.999301 0.0358174   
     length 2.09037   
     axis 0 0 0   XYZ
    dof rx ry rz
    limits (-20.0 45.0)
           (-30.0 30.0)
           (-30.0 30.0)
  end
  begin
     id 14 
     name lowerneck
     direction -0.0580016 0.987052 0.149546   
     length 1.84454   
     axis 0 0 0   XYZ
    dof rx ry rz
    limits (-20.0 45.0)
           (-30.0 30.0)
           (-30.0 30.0)
  end
  begin
     id 15 
     name upperneck
     direction 0.079456 0.981963 -0.171567   
     length 1.88141   
     axis 0 0 0   XYZ
    dof rx ry rz
    limits (-20.0 45.0)
           (-30.0 30.0)
           (-30.0 30.0)
  end
  begin
     id 16
     name head
     direction 0.0262167 0.9967 -0.0768276  
     length 1.89541  
     axis 0 0 0   XYZ
    dof rx ry rz
    limits (-20.0 45.0)
           (-30.0 30.0)
           (-30.0 30.0)
  end
  begin
     id 17 
     name lclavicle
     direction 0.946135 0.322134 -0.0325326  
     length 3.949  
     axis 0 0 0   XYZ
    dof ry rz
    limits (-20.0 10.0)
           (0.0 20.0)
  end
  begin
     id 18 
     name lhumerus
     direction 1 -4.48964e-011 1.94005e-028   
     length 5.10995   
     axis 180 -30 -90   XYZ
    dof rx ry rz
    limits (-60.0 90.0)
           (-90.0 90.0)
           (-90.0 90.0)
  end
  begin
     id 19
     name lradius
     direction 1 -4.48976e-011 2.87852e-027   
     length 3.21207   
     axis 180 -30 -90   XYZ
    dof rx
    limits (-10.0 170.0)
  end
  begin
     id 20
     name lwrist
     direction 1 -4.48963e-011 1.9975e-027   
     length 1.60604   
     axis 2.96054e-016 90 90   XYZ
    dof ry
    limits (-180.0 0.0)
 end
  begin
     id 21 
     name lhand
     direction 1 -4.48919e-011 4.00227e-027   
     length 0.63349   
     axis -2.5488e-015 90 90   XYZ
    dof rx rz
    limits (-90.0 90.0)
           (-45.0 45.0)
  end
  begin
     id 22 
     name lfingers
     direction 1 -4.49037e-011 7.9652e-027   
     length 0.510736   
     axis -5.0975e-015 90 90   XYZ
    dof rx
    limits (0.0 90.0)
  end
  begin
     id 23
     name lthumb
     direction 0.707107 -6.34922e-011 0.707107   
     length 0.733318   
     axis -90 45 -4.48553e-014   XYZ
    dof rx rz
    limits (-45.0 45.0)
           (-45.0 45.0)
  end
  begin
     id 24 
     name rclavicle
     direction -0.940085 0.328911 -0.0897654   
     length 3.93848  
     axis 0 0 0   XYZ 
    dof ry rz
    limits (-10.0 20.0)
           (-20.0 0.0)
  end
  begin
     id 25 
     name rhumerus
     direction -1 -4.48958e-011 3.02044e-027  
     length 5.25109   
     axis 180 30 90   XYZ
    dof rx ry rz
    limits (-90.0 60.0)
           (-90.0 90.0)
           (-90.0 90.0)
  end
  begin
     id 26 
     name rradius
     direction -1 -4.4897e-011 9.78352e-028   
     length 3.28364   
     axis 180 30 90   XYZ
    dof rx
    limits (-10.0 170.0)
  end
  begin
     id 27 
     name rwrist
     direction -1 -4.48943e-011 1.99918e-027   
     length 1.64182   
     axis 2.96054e-016 -90 -90   XYZ
    dof ry
    limits (-180.0 0.0)
  end
  begin
     id 28
     name rhand
     direction -1 -4.49024e-011 3.98478e-027   
     length 0.599745   
     axis -2.5488e-015 -90 -90   XYZ
    dof rx rz
    limits (-90.0 90.0)
           (-45.0 45.0)
  end
  begin
     id 29
     name rfingers
     direction -1 -4.48914e-011 8.00621e-027   
     length 0.48353   
     axis -5.0975e-015 -90 -90   XYZ
    dof rx
    limits (0.0 90.0)
  end
  begin
     id 30
     name rthumb
     direction -0.707107 -6.34992e-011 0.707107   
     length 0.694255   
     axis -90 -45 4.48553e-014   XYZ
    dof rx rz
    limits (-45.0 45.0)
           (-45.0 45.0)
  end
:hierarchy
  begin
    root lhipjoint rhipjoint lowerback
    lhipjoint lfemur
    lfemur ltibia
    ltibia lfoot
    lfoot ltoes
    rhipjoint rfemur
    rfemur rtibia
    rtibia rfoot
    rfoot rtoes
    lowerback upperback
    upperback thorax
    thorax lowerneck lclavicle rclavicle
    lowerneck upperneck
    upperneck head
    lclavicle lhumerus
    lhumerus lradius
    lradius lwrist
    lwrist lhand lthumb
    lhand lfingers
    rclavicle rhumerus
    rhumerus rradius
    rradius rwrist
    rwrist rhand rthumb
    rhand rfingers
  end

#!OML:ASF E:\CV Data\Top Level 1\Subject 1\Session 1\player.ASF
:FULLY-SPECIFIED
:DEGREES
91
root 5.24313 17.9805 -21.0032 13.0395 0.836366 -6.11428
lowerback 10.601 -0.204222 6.66663
upperback 3.25237 0.551899 4.04592
thorax -2.52035 0.260354 0.395327
lowerneck -14.9901 -7.20427 -12.4672
upperneck 36.6401 -8.23758 3.80074
head 16.4276 -4.61887 2.30895
rclavicle -5.56597e-015 -2.22639e-014
rhumerus -7.59278 0.866581 -87.009
rradius 89.8325
rwrist -35.0197
rhand -32.3467 15.9424
rfingers 7.12502
rthumb -5.58343 -13.964
lclavicle -5.56597e-015 -2.22639e-014
lhumerus -7.70605 5.66658 92.2777
lradius 103.784
lwrist 44.5318
lhand -24.7897 13.1733
lfingers 7.12502
lthumb 1.71472 43.1461
rfemur -23.0992 0.538444 24.6377
rtibia 23.9589
rfoot -10.7619 -12.0925
rtoes 2.88158
lfemur -21.4895 1.79606 -7.062
ltibia 19.232
lfoot -4.3136 1.632
ltoes -9.10326
92
root 5.22572 17.9795 -21.0069 13.1101 0.880631 -6.11294
lowerback 10.8663 -0.200883 6.69396
upperback 3.26306 0.584913 4.04498
thorax -2.65341 0.2736 0.375028
lowerneck -14.8929 -7.21566 -12.5153
upperneck 36.6082 -8.27312 3.86324
head 16.3987 -4.632 2.34049
rclavicle -7.95139e-016 4.77083e-015
rhumerus -8.23813 0.592434 -86.846
rradius 89.4893
rwrist -33.5448
rhand -32.8965 16.118
rfingers 7.12502
rthumb -6.11431 -13.7737
lclavicle -7.95139e-016 4.77083e-015
lhumerus -8.44948 5.46902 91.8424
lradius 104.281
lwrist 44.1356
lhand -25.8643 13.3629
lfingers 7.12502
lthumb 0.676812 43.3415
rfemur -23.2439 0.508384 24.7085
rtibia 24.0573
rfoot -10.786 -12.0794
rtoes 2.87773
lfemur -21.7579 1.96177 -7.02256
ltibia 19.5063
lfoot -4.33294 1.43961
ltoes -9.03329
93
root 5.20932 17.9783 -21.0117 13.1772 0.936928 -6.10786
lowerback 11.0159 -0.194289 6.72134
upperback 3.37829 0.602959 4.04513
thorax -2.61366 0.285027 0.357488
lowerneck -14.9321 -7.24066 -12.5304
upperneck 36.526 -8.31754 3.92524
head 16.3755 -4.64083 2.35987
rclavicle 3.97569e-015 1.66979e-014
rhumerus -8.74331 0.393584 -86.6219
rradius 89.0522
rwrist -32.1941
rhand -33.3627 16.1904
rfingers 7.12502
rthumb -6.56432 -13.6879
lclavicle 3.97569e-015 1.66979e-014
lhumerus -9.04383 5.11838 91.4055
lradius 104.61
lwrist 43.4647
lhand -26.8302 13.5995
lfingers 7.12502
lthumb -0.256109 43.5791
rfemur -23.3932 0.465102 24.7739
rtibia 24.1664
rfoot -10.8146 -12.0681
rtoes 2.87766
lfemur -22.046 2.13664 -6.99124
ltibia 19.8064
lfoot -4.36352 1.22142
ltoes -8.90736
94
root 5.19364 17.9767 -21.0175 13.2365 1.00534 -6.10002
lowerback 11.1931 -0.187622 6.73726
upperback 3.49042 0.623208 4.05313
thorax -2.59234 0.297069 0.354201
lowerneck -14.9608 -7.27227 -12.5566
upperneck 36.4235 -8.37089 3.9927
head 16.3416 -4.65394 2.3818
rclavicle 0 3.26007e-014
rhumerus -9.28348 0.277751 -86.3361
rradius 88.5467
rwrist -30.9617
rhand -33.7463 16.1013
rfingers 7.12502
rthumb -6.93463 -13.7651
lclavicle 0 3.26007e-014
lhumerus -9.66422 4.64219 90.9738
lradius 104.807
lwrist 42.5457
lhand -27.6816 13.9047
lfingers 7.12502
lthumb -1.07841 43.8818
rfemur -23.5431 0.413654 24.8354
rtibia 24.2865
rfoot -10.8476 -12.0633
rtoes 2.87618
lfemur -22.3504 2.33067 -6.96834
ltibia 20.1333
lfoot -4.40669 0.971084
ltoes -8.74396
95
root 5.17883 17.9748 -21.0244 13.2926 1.08472 -6.09264
lowerback 11.4292 -0.181368 6.74728
upperback 3.57208 0.650822 4.06896
thorax -2.63506 0.310756 0.361356
lowerneck -14.9618 -7.30657 -12.5955
upperneck 36.3177 -8.42868 4.06207
head 16.3012 -4.67083 2.40653
rclavicle 5.56597e-015 -9.54166e-015
rhumerus -9.89611 0.240924 -85.9971
rradius 87.9839
rwrist -29.8491
rhand -34.024 15.7714
rfingers 7.12502
rthumb -7.2027 -14.086
lclavicle 5.56597e-015 -9.54166e-015
lhumerus -10.3428 4.05936 90.559
lradius 104.885
lwrist 41.4221
lhand -28.4887 14.3193
lfingers 7.12502
lthumb -1.8579 44.2909
rfemur -23.6988 0.360348 24.895
rtibia 24.4188
rfoot -10.8844 -12.0685
rtoes 2.87511
lfemur -22.6762 2.54595 -6.95107
ltibia 20.4901
lfoot -4.46393 0.694898
ltoes -8.52471
96
root 5.16494 17.9723 -21.0323 13.3493 1.18189 -6.08498
lowerback 11.716 -0.179292 6.75551
upperback 3.62718 0.680166 4.09094
thorax -2.73331 0.32356 0.37559
lowerneck -14.946 -7.34164 -12.6388
upperneck 36.2102 -8.48765 4.12935
head 16.2564 -4.6894 2.43126
rclavicle 2.06736e-014 5.32743e-014
rhumerus -10.564 0.277206 -85.6173
rradius 87.3705
rwrist -28.86
rhand -34.1895 15.1821
rfingers 7.12502
rthumb -7.36251 -14.6698
lclavicle 2.06736e-014 5.32743e-014
lhumerus -11.0691 3.39076 90.1692
lradius 104.861
lwrist 40.1485
lhand -29.193 14.833
lfingers 7.12502
lthumb -2.53814 44.7976
rfemur -23.8655 0.305354 24.9517
rtibia 24.5655
rfoot -10.9251 -12.0893
rtoes 2.86974
lfemur -23.0322 2.78219 -6.94114
ltibia 20.8801
lfoot -4.5335 0.392312
ltoes -8.26686
97
root 5.15215 17.9692 -21.0415 13.4059 1.30175 -6.08064
lowerback 12.0767 -0.186424 6.7754
upperback 3.6411 0.709581 4.11514
thorax -2.91491 0.333776 0.385516
lowerneck -14.9057 -7.37303 -12.6816
upperneck 36.1119 -8.54364 4.19228
head 16.21 -4.70796 2.45535
rclavicle -3.18055e-015 7.95139e-016
rhumerus -11.3031 0.381199 -85.2142
rradius 86.7146
rwrist -28.0064
rhand -34.2197 14.3315
rfingers 7.12502
rthumb -7.39159 -15.5194
lclavicle -3.18055e-015 7.95139e-016
lhumerus -11.8621 2.65374 89.8078
lradius 104.751
lwrist 38.7832
lhand -29.6954 15.4369
lfingers 7.12502
lthumb -3.02326 45.3953
rfemur -24.0439 0.249811 25.0086
rtibia 24.7293
rfoot -10.972 -12.1287
rtoes 2.8738
lfemur -23.4205 3.02427 -6.9312
ltibia 21.3086
lfoot -4.61331 0.0772956
ltoes -7.93766
98
root 5.14058 17.9652 -21.0521 13.4624 1.43922 -6.08278
lowerback 12.4225 -0.200449 6.81575
upperback 3.67557 0.729552 4.13717
thorax -3.06657 0.340292 0.383065
lowerneck -14.8737 -7.40559 -12.7168
upperneck 35.9824 -8.60497 4.26562
head 16.1506 -4.72571 2.48105
rclavicle -8.34896e-015 -6.36111e-015
rhumerus -12.0109 0.542481 -84.8051
rradius 86.0069
rwrist -27.3045
rhand -34.0975 13.2802
rfingers 7.12502
rthumb -7.27369 -16.5748
lclavicle -8.34896e-015 -6.36111e-015
lhumerus -12.623 1.86593 89.4788
lradius 104.558
lwrist 37.3799
lhand -29.9647 16.088
lfingers 7.12502
lthumb -3.28335 46.0425
rfemur -24.2376 0.196496 25.0682
rtibia 24.9125
rfoot -11.0234 -12.1856
rtoes 2.86912
lfemur -23.8424 3.26763 -6.91769
ltibia 21.7829
lfoot -4.6997 -0.239874
ltoes -7.54272
99
root 5.1304 17.9602 -21.064 13.5185 1.58911 -6.09263
lowerback 12.7379 -0.221312 6.87909
upperback 3.74284 0.738016 4.15541
thorax -3.16674 0.342785 0.365511
lowerneck -14.8656 -7.43903 -12.7379
upperneck 35.8222 -8.6694 4.3451
head 16.0813 -4.74119 2.50531
rclavicle -1.94809e-014 -4.69132e-014
rhumerus -12.6584 0.75296 -84.4011
rradius 85.2454
rwrist -26.757
rhand -33.7788 12.0634
rfingers 7.12502
rthumb -6.96607 -17.802
lclavicle -1.94809e-014 -4.69132e-014
lhumerus -13.3359 1.04673 89.184
lradius 104.292
lwrist 35.9799
lhand -29.9697 16.7084
lfingers 7.12502
lthumb -3.28818 46.6628
rfemur -24.4472 0.141778 25.1316
rtibia 25.119
rfoot -11.0834 -12.2512
rtoes 2.86486
lfemur -24.3013 3.50495 -6.89919
ltibia 22.309
lfoot -4.79457 -0.543548
ltoes -7.12575
100
root 5.12191 17.9542 -21.0772 13.5725 1.74487 -6.10997
lowerback 13.0107 -0.247024 6.95452
upperback 3.85464 0.734411 4.17683
thorax -3.19676 0.341666 0.346382
lowerneck -14.8899 -7.47498 -12.7509
upperneck 35.6281 -8.73488 4.42802
head 16.0027 -4.7545 2.52802
rclavicle -3.57812e-015 -4.53229e-014
rhumerus -13.2204 1.01345 -83.9989
rradius 84.4212
rwrist -26.3264
rhand -33.2589 10.7571
rfingers 7.12502
rthumb -6.4642 -19.1243
lclavicle -3.57812e-015 -4.53229e-014
lhumerus -13.9819 0.22228 88.9373
lradius 103.962
lwrist 34.6256
lhand -29.7475 17.2269
lfingers 7.12502
lthumb -3.07362 47.1845
rfemur -24.6708 0.0839036 25.1975
rtibia 25.3486
rfoot -11.1538 -12.3177
rtoes 2.87156
lfemur -24.7896 3.72695 -6.87483
ltibia 22.8867
lfoot -4.91096 -0.820479
ltoes -6.7237
101
root 5.11442 17.947 -21.0928 13.6352 1.91369 -6.13221
lowerback 13.2372 -0.276869 7.01794
upperback 4.00847 0.716769 4.21322
thorax -3.15778 0.336011 0.35189
lowerneck -14.9494 -7.51422 -12.7615
upperneck 35.4016 -8.79765 4.50713
head 15.9162 -4.76576 2.54758
rclavicle 9.93923e-015 -3.18055e-015
rhumerus -13.6814 1.32425 -83.5918
rradius 83.5262
rwrist -25.9798
rhand -32.5587 9.45991
rfingers 7.12502
rthumb -5.78817 -20.441
lclavicle 9.93923e-015 -3.18055e-015
lhumerus -14.5587 -0.582494 88.7534
lradius 103.577
lwrist 33.334
lhand -29.4835 17.6172
lfingers 7.12502
lthumb -2.81864 47.5783
rfemur -24.9252 0.023251 25.267
rtibia 25.6034
rfoot -11.2299 -12.3932
rtoes 2.88424
lfemur -25.3214 3.92341 -6.8423
ltibia 23.5099
lfoot -5.06027 -1.07078
ltoes -6.3421
